<?xml version="1.0" encoding="utf-8"?>
<!-- Generator: Adobe Illustrator 25.1.0, SVG Export Plug-In . SVG Version: 6.00 Build 0)  -->
<svg version="1.1" id="Layer_1" xmlns="http://www.w3.org/2000/svg" xmlns:xlink="http://www.w3.org/1999/xlink" x="0px" y="0px"
	 viewBox="0 0 407.3 92.6" style="enable-background:new 0 0 407.3 92.6;" xml:space="preserve">
<style type="text/css">
	.st0{fill:#169BED;}
	.st1{fill:#FFFFFF;}
</style>
<path class="st0" d="M193.4,63c0-1.1,0.2-2.2,0.6-3.2c0.4-1,1-1.9,1.7-2.6c0.7-0.7,1.6-1.3,2.6-1.8c1-0.4,2.1-0.7,3.2-0.7
	c1.1,0,2.2,0.2,3.2,0.7c1,0.4,1.9,1,2.6,1.8c0.7,0.7,1.3,1.6,1.8,2.6c0.4,1,0.6,2.1,0.6,3.2c0,1.1-0.2,2.2-0.6,3.2
	c-0.4,1-1,1.9-1.8,2.6c-0.7,0.7-1.6,1.3-2.6,1.7c-1,0.4-2.1,0.6-3.2,0.6c-1.1,0-2.2-0.2-3.2-0.6c-1-0.4-1.9-1-2.6-1.7
	c-0.7-0.7-1.3-1.6-1.7-2.6C193.6,65.2,193.4,64.1,193.4,63"/>
<path class="st1" d="M261,64.6c-2.1,2.3-4.8,4.2-8.2,5.9c-3.4,1.6-7.4,2.5-12,2.5c-4.1,0-7.7-0.7-11.1-2c-3.3-1.3-6.1-3.2-8.5-5.6
	c-2.3-2.4-4.2-5.2-5.5-8.5c-1.3-3.3-2-6.9-2-10.8c0-3.7,0.7-7.2,2-10.4c1.3-3.2,3.2-6.1,5.6-8.5c2.4-2.4,5.2-4.3,8.5-5.7
	c3.3-1.4,6.9-2.1,10.8-2.1c4.5,0,8.5,0.7,11.8,2.2c3.3,1.5,6.2,3.5,8.4,6l-9.3,10c-1.1-1.3-2.5-2.4-4.2-3.4c-1.6-1-3.8-1.5-6.5-1.5
	c-1.9,0-3.5,0.4-5,1.1c-1.5,0.8-2.7,1.7-3.7,2.9c-1,1.2-1.8,2.6-2.3,4.2c-0.5,1.6-0.8,3.3-0.8,5.1c0,1.6,0.3,3.3,0.8,4.9
	c0.5,1.6,1.3,3,2.3,4.3c1,1.2,2.3,2.3,3.7,3c1.5,0.8,3.1,1.2,5,1.2c2.6,0,4.8-0.5,6.6-1.5c1.8-1,3.2-2.2,4.3-3.4L261,64.6z"/>
<path class="st1" d="M0,21.1h14.7c0.1,0.9,0.2,1.8,0.3,2.7c0.1,0.9,0.1,1.8,0.2,2.7c1.6-2.1,3.7-3.6,6.3-4.8c2.6-1.1,5.2-1.6,8-1.6
	c3.6,0,6.8,0.7,9.6,2.1c2.8,1.4,5.1,3.3,6.9,5.7c1.8,2.4,3.2,5.1,4.2,8.2c0.9,3.1,1.4,6.3,1.4,9.6c0,4.6-0.8,8.7-2.4,12.1
	c-1.6,3.4-3.6,6.2-6.1,8.4c-2.5,2.2-5.3,3.8-8.4,4.9c-3.1,1.1-6.2,1.6-9.3,1.6c-2.4,0-4.4-0.2-6-0.6c-1.6-0.4-3-0.9-4.3-1.3v21.7H0
	V21.1z M15.3,58c2,1.4,4.9,2,8.9,2c3.8,0,6.7-1.3,8.9-3.8c2.2-2.5,3.3-5.9,3.3-10.1c0-1.6-0.2-3.2-0.6-4.8c-0.4-1.6-1-2.9-1.8-4.1
	c-0.8-1.2-1.9-2.1-3.2-2.8c-1.3-0.7-2.9-1.1-4.9-1.1c-1.7,0-3.2,0.3-4.5,1c-1.3,0.6-2.4,1.5-3.3,2.6c-0.9,1.1-1.6,2.3-2,3.6
	c-0.5,1.4-0.7,2.7-0.7,4.2V58z"/>
<rect x="59.4" class="st1" width="15.4" height="71.2"/>
<path class="st1" d="M114.4,66.5c-1.7,2-3.9,3.5-6.5,4.6c-2.6,1.1-5.5,1.6-8.7,1.6c-1.8,0-3.6-0.2-5.6-0.7c-2-0.5-3.8-1.3-5.4-2.5
	c-1.7-1.2-3.1-2.8-4.2-4.7c-1.1-2-1.7-4.5-1.7-7.5c0-2.9,0.6-5.5,1.8-7.8c1.2-2.3,2.8-4.2,4.9-5.7c2.1-1.5,4.5-2.7,7.3-3.5
	c2.8-0.8,5.9-1.2,9.1-1.2c1.8,0,3.6,0,5.4,0.1c1.8,0.1,3,0.2,3.6,0.3v-1.1c0-1.3-0.3-2.4-0.8-3.3c-0.5-0.9-1.2-1.6-2.1-2.2
	c-0.9-0.6-1.9-1-3-1.3c-1.1-0.2-2.3-0.4-3.6-0.4c-3.4,0-6.2,0.4-8.5,1.3c-2.2,0.9-4.1,1.8-5.7,2.9L84.3,26c1.1-0.8,2.3-1.6,3.6-2.3
	c1.4-0.8,3-1.5,4.8-2.1c1.8-0.6,3.9-1.2,6.2-1.5c2.3-0.4,5-0.6,7.9-0.6c7.6,0,13.2,2,16.9,6.1c3.6,4.1,5.4,9.6,5.4,16.5v29.1h-14.4
	L114.4,66.5z M114.4,49.1c-0.4-0.1-1-0.2-2-0.3c-1-0.1-2.1-0.2-3.4-0.2c-4.3,0-7.3,0.6-9.1,1.8c-1.8,1.2-2.7,2.9-2.7,5.1
	c0,4.1,2.5,6.2,7.5,6.2c1.2,0,2.4-0.2,3.6-0.6c1.2-0.4,2.2-0.9,3.1-1.7c0.9-0.7,1.6-1.6,2.2-2.7c0.6-1.1,0.9-2.3,0.9-3.7V49.1z"/>
<path class="st1" d="M137,21.1h14.7l0.4,5.4c1.6-2,3.8-3.6,6.5-4.8c2.7-1.2,5.5-1.8,8.4-1.8c5.8,0,10.3,1.7,13.7,5.1
	c3.4,3.4,5.1,8.5,5.1,15.2v31h-15.4V42.4c0-2.8-0.7-5-2.1-6.6c-1.4-1.6-3.3-2.5-5.8-2.5c-1.7,0-3.2,0.3-4.5,0.9
	c-1.3,0.6-2.3,1.4-3.2,2.4c-0.9,1-1.5,2.2-1.9,3.5c-0.4,1.3-0.6,2.7-0.6,4.2v26.9H137V21.1z"/>
<path class="st1" d="M264.9,46.1c0-3.7,0.7-7.2,2-10.4c1.3-3.2,3.2-6.1,5.5-8.5c2.4-2.4,5.2-4.3,8.5-5.7c3.3-1.4,7-2.1,10.9-2.1
	c4,0,7.6,0.7,10.9,2.1c3.3,1.4,6.1,3.3,8.4,5.7c2.3,2.4,4.2,5.3,5.5,8.5c1.3,3.2,2,6.7,2,10.4c0,3.7-0.7,7.2-2,10.4
	c-1.3,3.2-3.1,6.1-5.5,8.5c-2.4,2.4-5.2,4.3-8.4,5.8c-3.3,1.4-6.9,2.1-10.9,2.1c-4,0-7.6-0.7-10.9-2.1c-3.3-1.4-6.1-3.3-8.5-5.8
	c-2.3-2.4-4.2-5.2-5.5-8.5C265.6,53.3,264.9,49.8,264.9,46.1 M291.8,59.6c1.9,0,3.6-0.4,5.1-1.1c1.5-0.7,2.8-1.8,3.8-3
	c1-1.3,1.8-2.7,2.3-4.3c0.5-1.6,0.7-3.3,0.7-5c0-1.7-0.2-3.4-0.7-5c-0.5-1.6-1.3-3-2.3-4.3c-1-1.2-2.3-2.2-3.8-3
	c-1.5-0.7-3.2-1.1-5.1-1.1c-1.9,0-3.7,0.4-5.2,1.1c-1.5,0.8-2.8,1.7-3.8,3c-1,1.2-1.8,2.7-2.3,4.3c-0.5,1.6-0.8,3.3-0.8,5
	c0,1.7,0.3,3.4,0.8,5c0.5,1.6,1.3,3,2.3,4.3c1,1.3,2.3,2.3,3.8,3C288.2,59.2,289.9,59.6,291.8,59.6"/>
<path class="st1" d="M326.3,21.1H341l0.5,5.6c1.6-1.9,3.6-3.5,6-4.8c2.4-1.3,5.3-1.9,8.5-1.9c2,0,3.8,0.2,5.3,0.6
	c1.6,0.4,2.9,1,4.1,1.7c1.2,0.7,2.2,1.4,3.1,2.2c0.9,0.8,1.6,1.6,2.2,2.4c2.1-2.2,4.6-3.9,7.5-5.1c3-1.2,6-1.8,9.2-1.8
	c6.4,0,11.3,1.8,14.7,5.4c3.4,3.6,5.1,8.6,5.1,14.8v31H392V42.7c0-3-0.7-5.3-2-6.9c-1.3-1.6-3.3-2.5-5.9-2.5c-3,0-5.4,1-7.2,3.1
	c-1.8,2.1-2.7,4.7-2.7,7.9v26.9h-14.8V42.7c0-3-0.7-5.3-2-6.9c-1.3-1.6-3.3-2.5-5.9-2.5c-2.9,0-5.3,1-7.1,3.1
	c-1.8,2.1-2.7,4.7-2.7,7.9v26.9h-15.4V21.1z"/>
</svg>
